HIERARCHY
ROOT Hips
{
	OFFSET -3.958830 18.904000 13.208200
	CHANNELS 6 Xposition Yposition Zposition Zrotation Yrotation Xrotation 
	JOINT LHipJoint
	{
		OFFSET 0.000000 0.000000 0.000000
		CHANNELS 3 Zrotation Yrotation Xrotation
		JOINT LeftUpLeg
		{
			OFFSET 1.800000 -1.400000 0.085000
			CHANNELS 3 Zrotation Yrotation Xrotation
			JOINT LeftLeg
			{
				OFFSET 2.215000 -6.000000 0.000000
				CHANNELS 3 Zrotation Yrotation Xrotation
				JOINT LeftFoot
				{
					OFFSET 2.500000 -6.900000 0.000000
					CHANNELS 3 Zrotation Yrotation Xrotation
					JOINT LeftToeBase
					{
						OFFSET 0.200000 -0.500000 1.950000
						CHANNELS 3 Zrotation Yrotation Xrotation
						End Site
						{
							OFFSET 0.000000 0.000000 0.000000
						}
					}
				}
			}
		}
	}
	JOINT RHipJoint
	{
		OFFSET 0.000000 0.000000 0.000000
		CHANNELS 3 Zrotation Yrotation Xrotation
		JOINT RightUpLeg
		{
			OFFSET -1.800000 -1.400000 0.085000
			CHANNELS 3 Zrotation Yrotation Xrotation
			JOINT RightLeg
			{
				OFFSET -2.215000 -6.000000 0.000000
				CHANNELS 3 Zrotation Yrotation Xrotation
				JOINT RightFoot
				{
					OFFSET -2.500000 -6.900000 0.000000
					CHANNELS 3 Zrotation Yrotation Xrotation
					JOINT RightToeBase
					{
						OFFSET -0.200000 -0.500000 1.950000
						CHANNELS 3 Zrotation Yrotation Xrotation
						End Site
						{
							OFFSET 0.000000 0.000000 0.000000
						}
					}
				}
			}
		}
	}
	JOINT LowerBack
	{
		OFFSET 0.000000 0.000000 0.000000
		CHANNELS 3 Zrotation Yrotation Xrotation
		JOINT Spine
		{
			OFFSET -0.087000 1.940000 -0.288900
			CHANNELS 3 Zrotation Yrotation Xrotation
			JOINT Spine1
			{
				OFFSET 0.000000 1.950000 0.060000
				CHANNELS 3 Zrotation Yrotation Xrotation
				JOINT Neck
				{
					OFFSET 0.000000 0.000000 0.000000
					CHANNELS 3 Zrotation Yrotation Xrotation
					JOINT Neck1
					{
						OFFSET 0.000000 1.600000 0.340000
						CHANNELS 3 Zrotation Yrotation Xrotation
						JOINT Head
						{
							OFFSET 0.000000 1.667000 -0.240000
							CHANNELS 3 Zrotation Yrotation Xrotation
							End Site
							{
								OFFSET 0.000000 0.000000 0.000000
							}
						}
					}
				}
				JOINT LeftShoulder
				{
					OFFSET 0.000000 0.000000 0.000000
					CHANNELS 3 Zrotation Yrotation Xrotation
					JOINT LeftArm
					{
						OFFSET 2.700000 1.550000 -0.730000
						CHANNELS 3 Zrotation Yrotation Xrotation
						JOINT LeftForeArm
						{
							OFFSET 5.450000 0.000000 0.000000
							CHANNELS 3 Zrotation Yrotation Xrotation
							JOINT LeftHand
							{
								OFFSET 3.450000 0.000000 0.000000
								CHANNELS 3 Zrotation Yrotation Xrotation
								JOINT LeftHandIndex1
								{
									OFFSET 0.750000 0.000000 0.000000
									CHANNELS 3 Zrotation Yrotation Xrotation
									End Site
									{
										OFFSET 0.000000 0.000000 0.000000
									}
								}
							}
						}
					}
				}
				JOINT RightShoulder
				{
					OFFSET 0.000000 0.000000 0.000000
					CHANNELS 3 Zrotation Yrotation Xrotation
					JOINT RightArm
					{
						OFFSET -2.700000 1.550000 -0.730000
						CHANNELS 3 Zrotation Yrotation Xrotation
						JOINT RightForeArm
						{
							OFFSET -5.450000 0.000000 0.000000
							CHANNELS 3 Zrotation Yrotation Xrotation
							JOINT RightHand
							{
								OFFSET -3.450000 0.000000 0.000000
								CHANNELS 3 Zrotation Yrotation Xrotation
								JOINT RightHandIndex1
								{
									OFFSET -0.750000 0.000000 0.000000
									CHANNELS 3 Zrotation Yrotation Xrotation
									End Site
									{
										OFFSET 0.000000 0.000000 0.000000
									}
								}
							}
						}
					}
				}
			}
		}
	}
}
MOTION
Frames: 10
Frame Time: 0.016667
-1.021480 16.365770 -0.660250 0.228310 -17.030129 -1.382871 -14.499565 12.230862 2.749177 21.044682 -1.760232 -18.825021 -5.037990 12.103357 39.258795 0.406815 7.396331 1.721968 0.680410 0.544640 0.907890 18.903292 -11.429022 3.597953 -22.107041 2.964878 -36.833019 4.166895 -10.609238 40.078010 -0.572351 -5.907587 2.174740 0.149850 -0.466150 -0.118340 -5.334910 1.991253 -7.967130 37.491915 -5.310031 15.958828 -4.646934 -1.611475 6.551693 2.732380 10.541876 -14.420602 24.514819 -14.648693 36.874882 -1.447180 -1.196790 -11.121520 -3.552774 -10.776753 7.862629 -41.955785 6.023469 -11.438288 19.981836 -32.655017 -4.779348 -3.073850 3.050423 0.433370 -0.300550 0.328410 0.063300 -3.258401 4.980508 7.298737 67.834593 15.564072 -7.351860 15.896129 48.478568 0.964820 2.440632 -1.677424 0.042410 -0.005110 -0.554600 -0.241940 
-1.034410 16.347110 -0.648820 0.583673 -17.089022 -1.074590 -14.513295 12.174077 2.759972 20.666942 -1.859864 -19.219724 -5.264565 12.198626 39.415542 0.375208 7.451793 1.716299 0.681340 0.534570 0.916090 18.909158 -11.354027 3.661927 -22.639431 2.929714 -37.540640 4.268014 -10.900130 40.659837 -0.580923 -6.053587 2.126175 0.168220 -0.451170 -0.130950 -5.329976 1.981668 -7.992295 37.982297 -5.381270 15.855134 -4.388781 -1.625675 5.966208 2.757386 10.539877 -13.989528 24.104354 -14.901284 35.356227 -2.044350 -1.538310 -11.397880 -4.321815 -9.908674 7.426995 -41.533383 6.291782 -11.083883 18.761743 -32.052300 -4.251374 -3.095023 3.024404 0.441470 -0.289050 0.308770 0.065830 -2.565451 4.263125 6.989863 68.545357 15.496315 -7.457289 15.106830 49.033326 0.685296 2.422569 -1.677810 0.008660 0.015580 -0.555430 -0.254850 
-1.046980 16.329460 -0.644810 0.826831 -17.084188 -1.115219 -14.515059 12.163416 2.749045 20.302212 -1.954382 -19.549070 -4.831208 12.101831 40.104077 0.367626 7.503085 1.699275 0.692690 0.540800 0.917130 18.916073 -11.332755 3.689583 -22.852484 2.920026 -37.857289 4.132660 -11.030071 41.218596 -0.596227 -6.155589 2.075856 0.182010 -0.448020 -0.128840 -5.340625 1.972383 -7.995239 38.534050 -5.588999 15.892684 -4.554101 -1.682931 5.708147 2.712108 10.307544 -13.521320 23.112472 -14.545937 34.713091 -1.674220 -1.829680 -11.922960 -4.930401 -9.482202 7.154471 -41.014802 6.104845 -10.597871 19.274960 -31.009531 -4.119386 -3.107605 3.031729 0.445310 -0.293440 0.300250 0.065380 -1.824237 4.035053 6.624476 69.024561 15.925509 -7.230342 14.604547 48.882316 0.503853 2.423925 -1.684910 0.003350 0.012430 -0.554200 -0.255930 
-1.056900 16.312870 -0.639820 0.894022 -17.001677 -1.232049 -14.509835 12.127791 2.752763 20.287696 -1.997185 -19.766655 -4.563787 12.154066 40.853650 0.371793 7.598685 1.658239 0.707900 0.556720 0.916710 18.929061 -11.337026 3.698127 -22.871043 2.948112 -38.025400 3.910900 -11.119052 41.841707 -0.611216 -6.256534 2.027485 0.199150 -0.458760 -0.131590 -5.372007 2.036997 -8.001111 39.256233 -5.794932 15.705165 -5.073713 -1.723346 5.785630 2.681986 10.007936 -13.287281 22.126459 -14.499487 34.319718 -1.618470 -2.324860 -12.229170 -5.208576 -9.588819 7.141074 -40.357898 6.063343 -10.296772 19.220381 -30.686073 -3.998799 -3.096583 3.053565 0.444790 -0.302650 0.292890 0.062560 -1.475614 4.423406 6.486065 69.705586 16.618565 -6.891576 13.548190 48.158148 0.024088 2.425371 -1.694761 0.004810 0.000410 -0.556310 -0.256930 
-1.064140 16.297540 -0.638380 0.835504 -16.886489 -1.301666 -14.506829 12.068587 2.766313 20.515963 -1.982205 -19.939341 -4.561532 12.323908 41.366766 0.368250 7.707011 1.612277 0.737090 0.581470 0.934530 18.943364 -11.333315 3.709078 -22.862927 3.049183 -38.210398 3.763777 -11.202108 42.437798 -0.633590 -6.347347 1.980680 0.225300 -0.472280 -0.133770 -5.405198 2.133121 -8.011928 39.835326 -5.887527 15.513050 -5.492363 -1.705083 5.978924 2.725514 9.835012 -13.105006 21.571167 -14.478135 33.800713 -1.281300 -2.698390 -12.913910 -5.281299 -9.720518 7.130828 -39.816330 5.914319 -10.025397 18.905334 -30.436109 -3.862777 -3.080458 3.070112 0.455770 -0.316590 0.293980 0.063550 -1.446591 4.756803 6.352694 70.058822 17.502823 -6.206885 13.328152 47.183942 -0.096829 2.427645 -1.706677 0.001440 -0.003560 -0.566760 -0.263600 
-1.070360 16.284530 -0.641500 0.802152 -16.836676 -1.418179 -14.508116 12.031858 2.786628 20.820050 -1.909583 -20.022650 -4.655215 12.526842 41.676672 0.341409 7.818606 1.574745 0.750990 0.588100 0.952050 18.948272 -11.337728 3.701760 -22.756163 3.193855 -38.279019 3.374260 -11.109306 42.924723 -0.647306 -6.380955 1.963185 0.248050 -0.466160 -0.147670 -5.415178 2.202278 -8.020554 39.981104 -5.862600 15.591715 -5.493710 -1.638631 6.071050 2.766298 9.796989 -12.987784 21.463552 -14.480496 33.245516 -0.916120 -2.845980 -13.898340 -5.331787 -9.744648 7.102364 -39.604722 6.021782 -10.015881 18.374994 -31.069070 -3.839985 -3.065508 3.046835 0.485600 -0.324520 0.292760 0.062960 -1.429949 4.922589 6.188795 70.011345 18.383319 -5.482189 13.619521 46.514136 0.035142 2.420638 -1.691240 -0.028990 0.026270 -0.566560 -0.277760 
-1.076120 16.277550 -0.646570 0.828572 -16.761887 -1.780329 -14.505600 12.024840 2.791374 21.014968 -1.817347 -19.797600 -4.813458 12.705925 41.779020 0.322219 7.885129 1.543651 0.761520 0.591970 0.969670 18.947911 -11.362308 3.688312 -22.716334 3.312334 -38.131124 3.076743 -11.019598 43.348299 -0.660694 -6.406495 1.946572 0.260390 -0.477270 -0.159050 -5.417911 2.253366 -8.024072 39.875865 -5.850997 15.831279 -5.460147 -1.626407 6.212903 2.819688 9.822661 -13.042056 21.707773 -14.764983 33.195167 -0.596360 -3.109710 -14.796890 -5.541343 -10.041252 7.230595 -39.636246 6.299484 -10.108237 18.415931 -31.321468 -3.914708 -3.051802 3.027929 0.512020 -0.339860 0.296600 0.050730 -1.279525 5.333994 6.120250 69.845659 19.230423 -4.973740 13.340281 46.041833 -0.054978 2.414998 -1.667317 -0.044340 0.042110 -0.560650 -0.294460 
-1.081210 16.270390 -0.649910 0.685680 -16.722755 -1.926860 -14.501707 11.969569 2.808714 21.412636 -1.702068 -19.793154 -5.050316 12.964624 41.885259 0.302094 7.978639 1.503111 0.766180 0.588840 0.982720 18.958059 -11.368486 3.693076 -22.703592 3.468027 -38.069270 3.206386 -11.134277 43.740146 -0.669471 -6.477851 1.920018 0.273940 -0.483600 -0.174470 -5.445456 2.363573 -8.036006 39.830497 -5.723269 15.708961 -5.539295 -1.603594 6.413017 2.938551 9.884987 -13.099572 22.074893 -15.256739 33.092598 -0.739210 -3.475720 -15.011120 -5.827713 -10.260162 7.323803 -39.361514 6.584954 -10.082108 18.513624 -31.549330 -3.957049 -3.048129 3.009697 0.525820 -0.344660 0.288080 0.038890 -1.175678 5.640748 6.109332 69.946083 19.953091 -4.451596 13.075842 45.770286 -0.158762 2.404423 -1.654129 -0.063760 0.056660 -0.553200 -0.311770 
-1.082040 16.270150 -0.656190 0.542715 -16.544686 -2.195895 -14.500580 11.947036 2.820431 21.763985 -1.630193 -19.716598 -5.130672 13.130937 42.067477 0.293720 8.056529 1.475202 0.775550 0.596300 0.997970 18.961089 -11.383949 3.672600 -22.646352 3.524345 -37.807807 3.292997 -11.202727 43.989317 -0.686816 -6.516115 1.905396 0.285820 -0.486260 -0.182990 -5.454896 2.416575 -8.037194 39.614123 -5.615088 15.777195 -5.485889 -1.614653 6.557831 3.037763 10.007941 -13.131039 22.573045 -15.788030 33.240141 -0.622690 -3.788660 -15.605460 -6.279411 -10.464448 7.352325 -39.100961 6.415392 -9.921918 19.287890 -31.373634 -4.121485 -3.043499 2.978601 0.545930 -0.353450 0.297180 0.038760 -0.835752 5.803573 6.082332 70.014801 20.338897 -4.302085 12.928097 46.104586 -0.225639 2.398256 -1.635962 -0.077800 0.078960 -0.555680 -0.319150 
-1.078410 16.267230 -0.663670 0.274022 -16.169661 -2.460799 -14.499342 11.928062 2.836145 22.215799 -1.569141 -19.694404 -5.163509 13.237649 42.162123 0.283258 8.108039 1.453400 0.786180 0.610500 1.011820 18.963891 -11.408197 3.630319 -22.576021 3.504165 -37.343119 3.482530 -11.298049 44.055871 -0.703831 -6.534332 1.895988 0.298290 -0.489720 -0.191140 -5.463295 2.462987 -8.030231 39.430666 -5.438961 15.831439 -5.368787 -1.565374 6.694393 3.101465 10.142239 -13.092057 23.023994 -16.225634 33.383963 -0.285640 -3.985710 -16.467410 -6.418607 -10.445970 7.192343 -38.841286 5.624722 -9.628717 19.963351 -31.126368 -4.265410 -3.042150 2.948054 0.564680 -0.364110 0.309610 0.037660 -0.716150 5.666341 6.091504 70.309783 20.428411 -4.322861 13.228231 46.850483 -0.140249 2.391858 -1.622723 -0.087190 0.101920 -0.557600 -0.324180 
